<?xml version="1.0" encoding="UTF-8"?>
<svg id="Calque_2" xmlns="http://www.w3.org/2000/svg" viewBox="0 0 227.68 103.61">
  <defs>
    <style>
      .cls-1 {
        fill: #fff;
      }
    </style>
  </defs>
  <g id="Calque_2-2" data-name="Calque_2">
    <g id="Layer_1">
      <g>
        <path class="cls-1" d="M0,.01h1.3v27.44H0V.01ZM5.88.01v24.82h12.42v2.62H1.95V.01h3.93Z"/>
        <path class="cls-1" d="M22.12.01h1.3v27.44h-1.3V.01ZM41.07.01v2.6h-13.07v6.54h10.47v2.6h-10.47v13.07h13.07v2.62h-16.99V0h16.99Z"/>
        <path class="cls-1" d="M46.04,21.6c1.8,1.8,3.96,2.85,6.49,3.16,2.5.31,4.82-.17,6.97-1.42L42.03,6.25l1.24-1.28v-.02l.77-.77,19.41,19.4c-2.65,2.58-5.84,3.87-9.55,3.87s-7.02-1.34-9.7-4.02l1.86-1.84h-.02ZM65.76,21.24l-1.24,1.26.02.02-.61.61L44.52,3.73C47.21,1.2,50.41-.03,54.11.02c3.71.06,6.88,1.4,9.49,4.02l-1.84,1.86c-1.81-1.81-3.98-2.87-6.51-3.18-2.49-.31-4.81.17-6.97,1.44l17.47,17.09h.01Z"/>
        <path class="cls-1" d="M80.61,27.46h-1.3V.02h1.3v27.44ZM98.25,9.16c0,1.86-.52,3.57-1.55,5.11-1.02,1.51-2.37,2.61-4.04,3.31l4.94,9.88h-2.93l-4.59-9.2c-.32.04-.64.06-.98.06h-3.92v9.15h-3.92V.03h7.85c2.53,0,4.68.89,6.47,2.68s2.68,3.94,2.68,6.47v-.02ZM89.1,15.69c1.8,0,3.34-.64,4.63-1.91,1.28-1.28,1.91-2.81,1.91-4.61s-.64-3.34-1.91-4.63c-1.29-1.28-2.83-1.91-4.63-1.91h-3.92v13.07h3.92Z"/>
        <path class="cls-1" d="M115.8,27.46c-3.78,0-7.01-1.34-9.7-4.02-2.68-2.69-4.02-5.93-4.02-9.7s1.34-7.02,4.02-9.7C108.79,1.36,112.03.02,115.8.02s7.02,1.34,9.7,4.02c2.68,2.68,4.02,5.91,4.02,9.7s-1.34,7.01-4.02,9.7c-2.68,2.68-5.91,4.02-9.7,4.02ZM107.95,5.87c-.22.23-.43.47-.65.71v14.29c.22.26.43.5.65.73V5.87ZM126.92,13.73c0-3.06-1.08-5.68-3.25-7.87-2.18-2.17-4.8-3.25-7.87-3.25-2.41,0-4.59.72-6.53,2.14v17.95c1.94,1.42,4.11,2.12,6.53,2.12,3.06,0,5.68-1.08,7.87-3.25,2.17-2.17,3.25-4.79,3.25-7.85h0Z"/>
        <path class="cls-1" d="M147.07,27.46c-3.79,0-7.02-1.34-9.7-4.02-2.68-2.68-4.02-5.91-4.02-9.7s1.34-7.02,4.02-9.7S143.28.02,147.07.02s7.02,1.34,9.7,4.02l-1.84,1.84c-2.17-2.17-4.79-3.25-7.87-3.25-2.41,0-4.59.71-6.53,2.12v17.97c1.94,1.42,4.11,2.12,6.53,2.12,3.07,0,5.7-1.08,7.87-3.25l1.84,1.86c-2.68,2.68-5.91,4.02-9.7,4.02h0ZM138.21,20.43c.2.27.42.53.65.78V6.24c-.23.24-.45.5-.65.78v13.4h0Z"/>
        <path class="cls-1" d="M160.6.01h1.3v27.44h-1.3V.01ZM180.22.01v27.44h-2.62v-15.69h-11.12v15.69h-3.92V.01h3.92v9.15h11.12V.01h2.62Z"/>
        <path class="cls-1" d="M184.04.01h1.3v27.44h-1.3V.01ZM202.99.01v2.6h-13.07v6.54h10.47v2.6h-10.47v13.07h13.07v2.62h-16.99V0h16.99,0Z"/>
        <path class="cls-1" d="M207.96,21.6c1.8,1.8,3.96,2.85,6.49,3.16,2.5.31,4.82-.17,6.97-1.42l-17.47-17.09,1.24-1.28v-.02l.77-.77,19.41,19.4c-2.65,2.58-5.84,3.87-9.55,3.87s-7.02-1.34-9.7-4.02l1.86-1.84h-.02ZM227.68,21.24l-1.24,1.26.02.02-.61.61-19.41-19.4c2.69-2.53,5.89-3.76,9.59-3.71,3.71.06,6.88,1.4,9.49,4.02l-1.84,1.86c-1.81-1.81-3.98-2.87-6.51-3.18-2.49-.31-4.81.17-6.97,1.44l17.47,17.09h0Z"/>
        <path class="cls-1" d="M19.48,36.94h1.3v27.44h-1.3v-27.44ZM21.43,64.39v-27.44h8.17c2.08,0,3.85.73,5.32,2.2s2.2,3.23,2.2,5.3c0,2.49-.99,4.48-2.97,5.99,2.41,1.47,3.62,3.61,3.62,6.43,0,2.08-.73,3.85-2.2,5.32s-3.24,2.2-5.32,2.2h-8.82ZM25.36,39.55v9.82h4.25c1.35,0,2.51-.48,3.46-1.45.96-.96,1.44-2.11,1.44-3.46s-.48-2.51-1.44-3.46c-.96-.96-2.11-1.44-3.46-1.44h-4.25ZM25.36,51.97v9.8h4.9c1.35,0,2.51-.48,3.48-1.44.96-.96,1.44-2.11,1.44-3.46s-.48-2.51-1.44-3.46c-.97-.96-2.13-1.44-3.48-1.44h-4.9Z"/>
        <path class="cls-1" d="M41.6,36.94h1.3v27.44h-1.3v-27.44ZM47.48,36.94v24.82h12.42v2.62h-16.34v-27.44h3.92,0Z"/>
        <path class="cls-1" d="M73.3,39.3l11.35,25.09h-4.57l-1.44-3.27h-10.99l-1.3,3.27h-2.62l9.57-25.09ZM68.7,58.51h8.78l-4.61-10.47-4.17,10.47ZM86.6,64.39h-1.3l-11.71-25.87.59-1.57s12.42,27.44,12.42,27.44Z"/>
        <path class="cls-1" d="M110.04,36.94v24.82l-16.99-16.32v18.95h-2.62v-27.44l16.99,16.32v-16.32h2.62ZM93.7,47.37l16.34,15.71v1.3l-16.34-15.71v-1.3Z"/>
        <path class="cls-1" d="M127.59,64.39c-3.79,0-7.02-1.34-9.7-4.02-2.68-2.68-4.02-5.91-4.02-9.7s1.34-7.02,4.02-9.7,5.91-4.02,9.7-4.02,7.02,1.34,9.7,4.02l-1.84,1.84c-2.17-2.17-4.79-3.25-7.87-3.25-2.41,0-4.59.71-6.53,2.12v17.97c1.94,1.42,4.11,2.12,6.53,2.12,3.07,0,5.7-1.08,7.87-3.25l1.84,1.86c-2.68,2.68-5.91,4.02-9.7,4.02h0ZM118.73,57.36c.2.27.42.53.65.78v-14.97c-.23.24-.45.5-.65.78v13.4h0Z"/>
        <path class="cls-1" d="M141.12,36.94h1.3v27.44h-1.3v-27.44ZM160.73,36.94v27.44h-2.62v-15.69h-11.12v15.69h-3.92v-27.44h3.92v9.15h11.12v-9.15h2.62Z"/>
        <path class="cls-1" d="M164.56,36.94h1.3v27.44h-1.3v-27.44ZM183.51,36.94v2.6h-13.07v6.54h10.47v2.6h-10.47v13.07h13.07v2.62h-16.99v-27.44h16.99,0Z"/>
        <path class="cls-1" d="M188.48,58.53c1.8,1.8,3.96,2.85,6.49,3.16,2.5.31,4.82-.17,6.97-1.42l-17.47-17.09,1.24-1.28v-.02l.77-.77,19.41,19.4c-2.65,2.58-5.84,3.87-9.55,3.87s-7.02-1.34-9.7-4.02l1.86-1.84h-.02ZM208.19,58.17l-1.24,1.26.02.02-.61.61-19.41-19.4c2.69-2.53,5.89-3.76,9.59-3.71,3.71.06,6.88,1.4,9.49,4.02l-1.84,1.86c-1.81-1.81-3.98-2.87-6.51-3.18-2.49-.31-4.81.17-6.97,1.44l17.47,17.09h0Z"/>
      </g>
      <g>
        <path class="cls-1" d="M86.58,101.41c.78,0,1.44-.13,2-.39s1.15-.68,1.76-1.25l1.45,1.49c-1.41,1.57-3.13,2.35-5.15,2.35s-3.69-.65-5.02-1.95c-1.33-1.3-2-2.94-2-4.93s.68-3.64,2.03-4.97c1.36-1.32,3.07-1.99,5.14-1.99s3.8.77,5.19,2.29l-1.43,1.57c-.64-.61-1.24-1.04-1.81-1.28s-1.23-.36-1.99-.36c-1.35,0-2.48.44-3.4,1.31s-1.38,1.99-1.38,3.34.46,2.49,1.37,3.4,1.99,1.36,3.24,1.36"/>
        <path class="cls-1" d="M96.44,100.42l-1.34,3.04h-2.41l5.88-13.35h2.41l5.88,13.35h-2.41l-1.34-3.04h-6.69.02ZM102.21,98.34l-2.43-5.5-2.43,5.5h4.86Z"/>
        <path class="cls-1" d="M112.76,91.86c-.66,0-1.19.14-1.61.4-.42.27-.63.67-.63,1.21s.21.95.63,1.24c.42.29,1.32.59,2.68.93,1.37.33,2.4.8,3.1,1.4.69.6,1.04,1.48,1.04,2.64s-.44,2.11-1.32,2.84-2.03,1.09-3.46,1.09c-2.09,0-3.94-.72-5.56-2.16l1.41-1.7c1.35,1.17,2.75,1.76,4.2,1.76.73,0,1.3-.16,1.73-.47s.64-.73.64-1.24-.2-.92-.6-1.2c-.4-.29-1.09-.55-2.07-.78-.98-.24-1.73-.45-2.23-.65-.51-.2-.96-.46-1.36-.77-.79-.6-1.18-1.52-1.18-2.75s.45-2.19,1.35-2.85c.9-.67,2.01-1.01,3.33-1.01.85,0,1.7.14,2.54.42.84.28,1.57.68,2.18,1.18l-1.2,1.7c-.39-.36-.93-.65-1.61-.88-.67-.23-1.34-.35-2-.35"/>
        <path class="cls-1" d="M124.79,91.86c-.66,0-1.19.14-1.61.4-.42.27-.63.67-.63,1.21s.21.95.63,1.24c.42.29,1.32.59,2.68.93,1.37.33,2.4.8,3.1,1.4.69.6,1.04,1.48,1.04,2.64s-.44,2.11-1.32,2.84c-.88.73-2.03,1.09-3.46,1.09-2.09,0-3.94-.72-5.56-2.16l1.41-1.7c1.35,1.17,2.75,1.76,4.2,1.76.73,0,1.3-.16,1.73-.47s.64-.73.64-1.24-.2-.92-.6-1.2c-.4-.29-1.09-.55-2.07-.78-.98-.24-1.73-.45-2.23-.65-.51-.2-.96-.46-1.36-.77-.79-.6-1.18-1.52-1.18-2.75s.45-2.19,1.35-2.85c.9-.67,2.01-1.01,3.33-1.01.85,0,1.7.14,2.54.42.84.28,1.57.68,2.18,1.18l-1.2,1.7c-.39-.36-.93-.65-1.61-.88-.67-.23-1.34-.35-2-.35"/>
        <rect class="cls-1" x="132.79" y="90.1" width="2.25" height="13.35"/>
        <path class="cls-1" d="M142.79,91.86c-.66,0-1.19.14-1.61.4-.42.27-.63.67-.63,1.21s.21.95.63,1.24c.42.29,1.32.59,2.68.93,1.37.33,2.4.8,3.1,1.4.69.6,1.04,1.48,1.04,2.64s-.44,2.11-1.32,2.84-2.03,1.09-3.46,1.09c-2.09,0-3.94-.72-5.56-2.16l1.41-1.7c1.35,1.17,2.75,1.76,4.2,1.76.73,0,1.3-.16,1.73-.47s.64-.73.64-1.24-.2-.92-.6-1.2c-.4-.29-1.09-.55-2.07-.78-.98-.24-1.73-.45-2.23-.65-.51-.2-.96-.46-1.36-.77-.79-.6-1.18-1.52-1.18-2.75s.45-2.19,1.35-2.85c.9-.67,2.01-1.01,3.33-1.01.85,0,1.7.14,2.54.42s1.57.68,2.18,1.18l-1.2,1.7c-.39-.36-.93-.65-1.61-.88-.67-.23-1.34-.35-2-.35"/>
      </g>
    </g>
  </g>
</svg>