<?xml version="1.0" encoding="utf-8"?>
<!-- Generator: Adobe Illustrator 16.0.0, SVG Export Plug-In . SVG Version: 6.00 Build 0)  -->
<!DOCTYPE svg PUBLIC "-//W3C//DTD SVG 1.1//EN" "http://www.w3.org/Graphics/SVG/1.1/DTD/svg11.dtd">
<svg version="1.1"
	 id="svg2" xmlns:dc="http://purl.org/dc/elements/1.1/" xmlns:cc="http://web.resource.org/cc/" xmlns:rdf="http://www.w3.org/1999/02/22-rdf-syntax-ns#" xmlns:svg="http://www.w3.org/2000/svg" xmlns:sodipodi="http://sodipodi.sourceforge.net/DTD/sodipodi-0.dtd" xmlns:inkscape="http://www.inkscape.org/namespaces/inkscape" inkscape:output_extension="org.inkscape.output.svg.inkscape" inkscape:export-ydpi="144" inkscape:export-xdpi="144" inkscape:export-filename="/Users/olivier/Desktop/Blason Rouge/Blason_Vide_3D.png" sodipodi:docbase="C:\Users\Jany\Documents\aaaOuiqui\Blasons\Blasons autres" sodipodi:docname="Blason ville fr Cassis (Bouches-du-Rhône).svg" inkscape:version="0.45.1" sodipodi:version="0.32"
	 xmlns="http://www.w3.org/2000/svg" xmlns:xlink="http://www.w3.org/1999/xlink" x="0px" y="0px" width="600px" height="660px"
	 viewBox="0 0 600 660" enable-background="new 0 0 600 660" xml:space="preserve">
<sodipodi:namedview  height="660px" inkscape:cy="324.58315" inkscape:cx="304.3599" gridtolerance="10.0" guidetolerance="10.0" objecttolerance="10.0" borderopacity="1.0" bordercolor="#666666" showgrid="false" pagecolor="#ffffff" inkscape:zoom="0.63" id="base" inkscape:current-layer="layer3" inkscape:window-y="-8" inkscape:window-x="-8" inkscape:window-height="814" inkscape:window-width="1152" inkscape:pageopacity="0.0" inkscape:pageshadow="2" showguides="true" inkscape:guide-bbox="true">
	</sodipodi:namedview>
<desc  id="desc4">Flag of Canton of Valais (Wallis)</desc>
<g id="layer3" inkscape:label="Fond écu" inkscape:groupmode="layer">
	<path id="path2855" sodipodi:nodetypes="cccccc" fill="#2B5DF2" d="M300,658.5c0,0,298.5-112.32,298.5-397.772
		c0-285.451,0-258.552,0-258.552H1.5v258.552C1.5,546.18,300,658.5,300,658.5z"/>
	<g id="g8089" transform="matrix(2.4603175,0,0,2.4603175,250.5705,45.912678)">
		<g id="g21688" transform="matrix(0.991269,0,0,0.991269,96.88623,-3.225443)">
			<path id="path12604" fill="#F7D917" stroke="#000000" stroke-width="1.2301" d="M-76.433,3.41c-0.083-0.005-0.167,0.004-0.25,0
				c-0.298-0.013-0.604,0-0.906,0c-11.037,0-20,8.956-20,20c0,4.47,1.469,8.596,3.949,11.924c2.481,3.328,7.111,6.173,8.846,7.59
				c1.681,1.372,1.173,3.94,1.173,8.33c0,4.391,0,8.781,0,8.781h6c0,0,0.261-12.562,0.271-14.64c0.009-2.078-0.77-4.082-2.766-5.531
				c-1.977-1.435-5.074-3.606-7.685-6.224c-2.612-2.619-4.226-6.236-4.226-10.23c0-7.987,6.455-14.469,14.438-14.469
				c0.249,0,0.504-0.013,0.75,0c7.637,0.388,13.719,6.731,13.719,14.469c0,1.747-0.307,3.451-0.875,5h5.781
				c0.412-1.597,0.625-3.274,0.625-5c0-10.575-8.206-19.282-18.594-20C-76.265,3.404-76.352,3.414-76.433,3.41z"/>
			<g id="g17018" transform="translate(0.270722,-9.024056e-2)">
				<path id="path11679" fill="#F7D917" stroke="#000000" stroke-width="1.2301" d="M-59.519,15.182
					c-1.375,1.346-2.348,11.487-11.711,9.234c-0.179,1.502,0.553,2.765,1.694,3.659c1.141,0.895,3.223,1.281,4.566-0.431
					c1.342-1.712,0,0,0,0s-1.049,2.375-3.563,3.439c-2.514,1.064-4.447-0.087-5.557-1.229c-1.11-1.141-1.492-3.538,0.005-4.479
					c1.496-0.941,3.677-2.909,4.803-2.893c1.126,0.015-4.218-1.462-6.239-0.337c1.048-2.123,3.482-2.475,3.981-4.909
					c0.832-4.059-3.639-4.155-3.639-4.155l-0.424,2.996c0,0-1.412-1.346-2.106-2.811c-0.694-1.465,2.345-4.72,2.345-4.72
					s-3.995,0.879-5.213,1.604c-1.219,0.725-1.914,3.587-1.266,6.425c-2.962-3.028-5.783-1.166-5.783-1.166s1.227,1.453,2.014,2.178
					c0.786,0.725,0.24,2.406,2.135,4.181c-2.347-0.03-3.927-0.827-5.304-2.146c-0.926,1.388,1.956,5.412,3.159,5.813
					c1.203,0.401,1.94,0.97,2.329,2.422c0.864,3.225,2.041,6.204,8.652,7.975c1.088,0.292,5.197-0.341,7.61-1.804
					c-1.468,1.515-5.894,2.457-7.423,2.827c-4.25,1.03-5.015,4.514-5.015,4.514s2.596-0.695,4.658,0.833
					c-1.277,0.626-1.126-0.016-2.545,1.311c-1.419,1.326-0.448,3.47,0.678,4.596c3.021,3.021,6.895-2.02,6.895-2.02
					s-0.941,0.509-2.221-0.278c-1.28-0.787-1.095-2.267,0.741-3.918C-69.43,40.246-51.939,34.08-59.519,15.182z"/>
				<g id="g17008">
					<path id="path15234" fill="none" stroke="#000000" stroke-width="1.2301" d="M-78.871,11.1c0,0-0.722,1.173-1.083,1.715
						c-0.361,0.542,0.361,2.888,1.263,4.151c0.902,1.263,0,0,0,0s-1.173,4.151-0.722,8.122c0.451,3.971,2.707,7.129,3.7,7.851
						c0.992,0.722,4.061,2.437,10.107-0.993"/>
					<path id="path15236" fill="#F7D917" stroke="#000000" stroke-width="1.2301" d="M-79.142,22.29c0,0,1.715-0.993,2.617-1.715
						c0.902-0.722,2.527-2.707,2.346-3.971"/>
					<path id="path15238" fill="#F7D917" stroke="#000000" stroke-width="1.2301" d="M-79.683,22.29c0,0-2.166-1.715-2.617-2.888
						c-0.451-1.173-0.451-2.346-2.617-3.429"/>
					<path id="path15240" fill="#F7D917" stroke="#000000" stroke-width="1.2301" d="M-79.169,26.17c0,0-1.332-1.083-2.188-1.444
						c-0.856-0.361-3.425-0.18-5.518-2.346"/>
					<path id="path15242" fill="#F7D917" stroke="#000000" stroke-width="1.2301" d="M-77.968,29.419c0,0,0.271-2.888,0.541-3.7
						c0.271-0.812,1.173-2.166,4.151-2.888"/>
					<path id="path16124" fill="#F7D917" stroke="#000000" stroke-width="1.2301" d="M-68.945,26.531c0,0,1.083,0.632,2.256,0.271
						c1.173-0.361,2.437-0.812,4.783-3.971"/>
					<path id="path16126" fill="#F7D917" stroke="#000000" stroke-width="1.2301" d="M-66.237,35.735c0,0-3.429,2.346-4.693,2.617
						c-1.263,0.271-3.7-0.451-5.595,1.715"/>
					<path id="path16128" fill="none" stroke="#000000" stroke-width="1.2301" d="M-69.486,38.172c0,0-1.985,2.256-3.159,2.888
						c-1.173,0.632-2.707,3.339-2.437,4.512c0.271,1.173,0.271,2.166,2.798,1.534"/>
				</g>
			</g>
			<g id="g21648" transform="translate(0.46875,-2)">
				<path id="path19895" fill="#F7D917" stroke="#000000" stroke-width="1.2301" d="M-80.634,198.961
					c-1.121,0-4.649-0.688-4.843,3.406c-1.263,1.805-0.551,6.869-5.063,8.313c7.654,4.419,9.519,21.243,9.562,21.406
					c0.034-0.162,1.623-16.84,9.531-21.406c-4.512-1.444-3.799-6.508-5.063-8.313C-76.509,198.764-79.513,198.961-80.634,198.961z"
					/>
				<path id="path20773" fill="#F7D917" stroke="#000000" stroke-width="1.2301" d="M-80.993,205.875v23.347"/>
			</g>
			
				<rect id="rect17044" x="-83.503" y="60.032" fill="#F7D917" stroke="#000000" stroke-width="1.2301" width="5.956" height="137.122"/>
			<g id="g18799" transform="translate(-0.150979,0)">
				<path id="path17922" fill="#F7D917" stroke="#000000" stroke-width="1.2301" d="M-80.374,56.429c4.872,0,5.96-0.04,5.883,2.815
					c-0.073,2.707-1.004,2.815-5.883,2.815c-4.963,0-5.947,0.036-5.883-2.815C-86.189,56.244-84.975,56.429-80.374,56.429z"/>
				<path id="path17919" fill="#F7D917" stroke="#000000" stroke-width="1.2301" d="M-80.374,57.484c3.827,0,7.023-0.025,6.932,1.76
					c-0.086,1.692-3.106,1.76-6.932,1.76c-3.826,0-7.008,0.023-6.932-1.76C-87.227,57.368-84.201,57.484-80.374,57.484z"/>
			</g>
			<g id="g19889" transform="translate(-0.150979,138.7596)">
				<path id="path19891" fill="#F7D917" stroke="#000000" stroke-width="1.2301" d="M-80.374,56.429c4.872,0,5.96-0.04,5.883,2.815
					c-0.073,2.707-1.004,2.815-5.883,2.815c-4.963,0-5.947,0.036-5.883-2.815C-86.189,56.244-84.975,56.429-80.374,56.429z"/>
				<path id="path19893" fill="#F7D917" stroke="#000000" stroke-width="1.2301" d="M-80.374,57.484c3.827,0,7.023-0.025,6.932,1.76
					c-0.086,1.692-3.106,1.759-6.932,1.759c-3.826,0-7.008,0.023-6.932-1.759C-87.227,57.368-84.201,57.484-80.374,57.484z"/>
			</g>
		</g>
	</g>
	<g id="g19849" transform="translate(2.380956,0)">
		<g id="g19716" transform="matrix(0,0.8042132,-0.8042132,0,681.68734,35.837796)" inkscape:label="Meubles">
			<g id="g16937">
				
					<path id="path13369" sodipodi:nodetypes="cc" fill="#FFFFFF" stroke="#000000" stroke-width="3.7304" stroke-linecap="round" stroke-linejoin="round" d="
					M300.439,349.502c62.624,23.923,56.593,7.928,55.772-8.215"/>
				<g id="g16925">
					
						<path id="path13367" sodipodi:nodetypes="cc" fill="#FFFFFF" stroke="#000000" stroke-width="3.7304" stroke-linecap="round" stroke-linejoin="round" d="
						M381.305,331.318c42.778,21.684,31.417-1.375,73.491-12.59"/>
					
						<path id="path13397" sodipodi:nodetypes="cccc" fill="#FFFFFF" stroke="#000000" stroke-width="3.7304" stroke-linecap="round" stroke-linejoin="round" d="
						M392.171,327.24c-2.242,1.84,21.661,4.996,28.246,7.81 M407.852,323.754l21.814,5.555"/>
				</g>
				<g id="g16933">
					
						<path id="path13361" sodipodi:nodetypes="ccc" fill="#FFFFFF" stroke="#000000" stroke-width="3.7304" stroke-linecap="round" stroke-linejoin="round" d="
						M258.596,257.097c2.845-7.247,23.637-21.811,46.376-33.562c6.548,12.234,25.262,26.731,39.325,38.965"/>
					
						<path id="path13385" sodipodi:nodetypes="cccccc" fill="#FFFFFF" stroke="#000000" stroke-width="3.7304" stroke-linecap="round" stroke-linejoin="round" d="
						M310.182,232.255c-9.915,7.268-26.724,14.681-33.036,23.042 M318.647,240.717c-6.409,4.38-20.547,9.983-24.55,15.457
						 M326.986,248.032c-4.144,3.766-14.957,5.9-16.749,8.597"/>
				</g>
				
					<path id="path13355" sodipodi:nodetypes="csssccccccc" fill="#FFFFFF" stroke="#000000" stroke-width="3.7304" stroke-linecap="round" stroke-linejoin="round" d="
					M129.9,279.43c10.569-6.01,15.043-7.394,27.716-10.464c15.138-3.666,34.458-7.861,54.934-10.302
					c36.818-4.386,77.368-3.08,104.036-0.917c53.275,4.319,129.031,29.077,148.824,28.587c9.863,0.514,22.144-0.68,27.448-3.302
					c25.499-19.309,47.547-19.798,70.268-23.956c-0.773,6.865-32.666,30.944-39.998,43.507
					c7.013,18.563,29.406,26.673,36.489,41.643c-30.653,0.096-52.504-15.023-77.636-23.292
					c-116.767-16.366-95.091,46.731-252.733,21.876"/>
				
					<path id="path13357" sodipodi:nodetypes="ccc" fill="#FFFFFF" stroke="#000000" stroke-width="3.7304" stroke-linecap="round" stroke-linejoin="round" d="
					M195.336,318.551c35.582,12.737,40.403,32.11,39.764,47.557c-7.881,3.487-36.042-19.169-60.105-39.616"/>
				
					<path id="path13359" sodipodi:nodetypes="cscc" fill="#FFFFFF" stroke="#000000" stroke-width="3.7304" stroke-linecap="round" stroke-linejoin="round" d="
					M199.387,288.469c11.815,41.688-26.182,48.623-65.139,24.183c-2.811-1.764-9.84-2.984-13.994-5.78
					c-22.514-4.54,11.731-5.604,17.532-5.487"/>
				
					<path id="path13363" fill="#FFFFFF" stroke="#000000" stroke-width="3.7304" stroke-linecap="round" stroke-linejoin="round" d="
					M186.636,284.232c4.372,18.802-0.527,31.284-20.962,33.172"/>
				
					<path id="path13365" sodipodi:nodetypes="cssssc" fill="#FFFFFF" stroke="#000000" stroke-width="3.7304" stroke-linecap="round" stroke-linejoin="round" d="
					M159.723,300.771c-10.413,0.933-24.396-0.613-36.208-2.142c-8.7-1.126-16.223-1.67-20.273-4.135
					c-3.96-2.41-5.47-5.276,1.894-8.267c2.828-1.149,7.933-2.644,15.589-4.339c8.552-1.896,10.909-3.508,10.909-3.508"/>
				
					<path id="path13371" sodipodi:nodetypes="csssc" fill="#FFFFFF" stroke="#000000" stroke-width="3.7304" stroke-linecap="round" stroke-linejoin="round" d="
					M168.855,286.704c0,3.477-2.991,8.416-8.425,8.416c-5.435,0-11.255-4.94-11.255-8.416s4.406-6.295,9.84-6.295
					S168.855,283.228,168.855,286.704z"/>
				
					<path id="path13373" fill="#FFFFFF" stroke="#000000" stroke-width="3.7304" stroke-linecap="round" stroke-linejoin="round" d="
					M164.45,286.939c0,1.734-1.664,3.212-3.925,3.485c-2.26,0.273-4.449-0.74-5.161-2.387c-0.712-1.649,0.263-3.445,2.299-4.237
					c2.036-0.793,4.531-0.346,5.885,1.053l-3.756,2.086H164.45z"/>
				
					<path id="path13375" sodipodi:nodetypes="cc" fill="#FFFFFF" stroke="#000000" stroke-width="3.7304" stroke-linecap="round" stroke-linejoin="round" d="
					M521.482,303.688c-4.215-0.686-10.486-1.564-20.059-1.149"/>
				
					<path id="path13377" fill="#FFFFFF" stroke="#000000" stroke-width="3.7304" stroke-linecap="round" stroke-linejoin="round" d="
					M535.713,286.263c-6.469,0.05-20.812,4.999-34.152,9.15"/>
				
					<path id="path13379" fill="#FFFFFF" stroke="#000000" stroke-width="3.7304" stroke-linecap="round" stroke-linejoin="round" d="
					M551.847,272.466c-13.476,0.775-32.772,6.9-52.93,15.22"/>
				
					<path id="path13381" fill="#FFFFFF" stroke="#000000" stroke-width="3.7304" stroke-linecap="round" stroke-linejoin="round" d="
					M546.676,329.927c-14.492-1.268-31.41-7.434-45.902-11.703"/>
				
					<path id="path13383" sodipodi:nodetypes="cc" fill="#FFFFFF" stroke="#000000" stroke-width="3.7304" stroke-linecap="round" stroke-linejoin="round" d="
					M530.633,314.967c-9.151,1.001-19.357-3.099-28.369-3.495"/>
				
					<path id="path13391" sodipodi:nodetypes="cc" fill="#FFFFFF" stroke="#000000" stroke-width="3.7304" stroke-linecap="round" stroke-linejoin="round" d="
					M197.127,330.104l37.76,35.579"/>
				
					<path id="path13393" sodipodi:nodetypes="cc" fill="#FFFFFF" stroke="#000000" stroke-width="3.7304" stroke-linecap="round" stroke-linejoin="round" d="
					M322.037,347.746c6.624,1.977,23.81,6.888,31.638,7.77"/>
				
					<path id="path13395" sodipodi:nodetypes="cc" fill="#FFFFFF" stroke="#000000" stroke-width="3.7304" stroke-linecap="round" stroke-linejoin="round" d="
					M338.633,344.72l17.232,5.86"/>
				
					<path id="path13401" fill="#FFFFFF" stroke="#000000" stroke-width="3.7304" stroke-linecap="round" stroke-linejoin="round" d="
					M217.359,269.109c9.101,6.766,1.698,15.436,0,15.013"/>
				
					<path id="path13403" fill="#FFFFFF" stroke="#000000" stroke-width="3.7304" stroke-linecap="round" stroke-linejoin="round" d="
					M229.592,290.806c9.328,6.934,1.741,15.82,0,15.387"/>
				
					<path id="path13405" fill="#FFFFFF" stroke="#000000" stroke-width="3.7304" stroke-linecap="round" stroke-linejoin="round" d="
					M249.17,265.036c9.328,6.934,1.741,15.82,0,15.386"/>
				
					<path id="path13407" fill="#FFFFFF" stroke="#000000" stroke-width="3.7304" stroke-linecap="round" stroke-linejoin="round" d="
					M261.135,287.304c11.821,8.788,2.205,20.048,0,19.498"/>
				
					<path id="path13409" fill="#FFFFFF" stroke="#000000" stroke-width="3.7304" stroke-linecap="round" stroke-linejoin="round" d="
					M212.463,303.413c8.285,6.159,1.546,14.052,0,13.667"/>
				
					<path id="path13411" fill="#FFFFFF" stroke="#000000" stroke-width="3.7304" stroke-linecap="round" stroke-linejoin="round" d="
					M245.004,313.545c9.327,6.935,1.74,15.82,0,15.387"/>
				
					<path id="path13413" fill="#FFFFFF" stroke="#000000" stroke-width="3.7304" stroke-linecap="round" stroke-linejoin="round" d="
					M293.896,291.744c9.328,6.934,1.741,15.82,0,15.387"/>
				
					<path id="path13415" fill="#FFFFFF" stroke="#000000" stroke-width="3.7304" stroke-linecap="round" stroke-linejoin="round" d="
					M277.8,322.129c9.328,6.935,1.74,15.82,0,15.387"/>
				
					<path id="path13417" fill="#FFFFFF" stroke="#000000" stroke-width="3.7304" stroke-linecap="round" stroke-linejoin="round" d="
					M281.037,264.426c9.328,6.935,1.741,15.82,0,15.387"/>
				
					<path id="path13419" fill="#FFFFFF" stroke="#000000" stroke-width="3.7304" stroke-linecap="round" stroke-linejoin="round" d="
					M312.488,274.897c11.027,8.198,2.058,18.703,0,18.19"/>
				
					<path id="path13421" fill="#FFFFFF" stroke="#000000" stroke-width="3.7304" stroke-linecap="round" stroke-linejoin="round" d="
					M310.172,314.007c11.065,8.225,2.064,18.766,0,18.251"/>
				
					<path id="path13423" fill="#FFFFFF" stroke="#000000" stroke-width="3.7304" stroke-linecap="round" stroke-linejoin="round" d="
					M325.708,294.714c10.717,7.967,1.999,18.177,0,17.678"/>
				
					<path id="path13425" fill="#FFFFFF" stroke="#000000" stroke-width="3.7304" stroke-linecap="round" stroke-linejoin="round" d="
					M344.659,276.636c9.781,7.271,1.824,16.59,0,16.134"/>
				
					<path id="path13427" fill="#FFFFFF" stroke="#000000" stroke-width="3.7304" stroke-linecap="round" stroke-linejoin="round" d="
					M343.393,318.417c9.328,6.934,1.741,15.82,0,15.385"/>
				
					<path id="path13429" fill="#FFFFFF" stroke="#000000" stroke-width="3.7304" stroke-linecap="round" stroke-linejoin="round" d="
					M358.199,298.759c9.328,6.934,1.741,15.82,0,15.385"/>
				
					<path id="path13431" fill="#FFFFFF" stroke="#000000" stroke-width="3.7304" stroke-linecap="round" stroke-linejoin="round" d="
					M376.636,281.477c9.327,6.934,1.74,15.82,0,15.385"/>
				
					<path id="path13433" fill="#FFFFFF" stroke="#000000" stroke-width="3.7304" stroke-linecap="round" stroke-linejoin="round" d="
					M376.19,310.095c9.327,6.934,1.739,15.82,0,15.385"/>
				
					<path id="path13435" fill="#FFFFFF" stroke="#000000" stroke-width="3.7304" stroke-linecap="round" stroke-linejoin="round" d="
					M394.522,300.33c8.633,6.418,1.61,14.642,0,14.24"/>
				
					<path id="path13437" fill="#FFFFFF" stroke="#000000" stroke-width="3.7304" stroke-linecap="round" stroke-linejoin="round" d="
					M422.843,291.784c7.938,5.902,1.48,13.463,0,13.094"/>
				
					<path id="path13439" fill="#FFFFFF" stroke="#000000" stroke-width="3.7304" stroke-linecap="round" stroke-linejoin="round" d="
					M451.249,295.463c6.896,5.127,1.287,11.696,0,11.376"/>
			</g>
		</g>
		<g id="g19761" transform="matrix(0,0.8042132,0.8042132,0,-86.449242,35.837796)" inkscape:label="Meubles">
			<g id="g19763">
				
					<path id="path19765" sodipodi:nodetypes="cc" fill="#FFFFFF" stroke="#000000" stroke-width="3.7304" stroke-linecap="round" stroke-linejoin="round" d="
					M300.439,349.502c62.624,23.923,56.593,7.928,55.772-8.215"/>
				<g id="g19767">
					
						<path id="path19769" sodipodi:nodetypes="cc" fill="#FFFFFF" stroke="#000000" stroke-width="3.7304" stroke-linecap="round" stroke-linejoin="round" d="
						M381.305,331.317c42.778,21.684,31.417-1.375,73.491-12.589"/>
					
						<path id="path19771" sodipodi:nodetypes="cccc" fill="#FFFFFF" stroke="#000000" stroke-width="3.7304" stroke-linecap="round" stroke-linejoin="round" d="
						M392.171,327.24c-2.242,1.84,21.661,4.996,28.246,7.811 M407.852,323.754l21.814,5.556"/>
				</g>
				<g id="g19773">
					
						<path id="path19775" sodipodi:nodetypes="ccc" fill="#FFFFFF" stroke="#000000" stroke-width="3.7304" stroke-linecap="round" stroke-linejoin="round" d="
						M258.596,257.096c2.845-7.246,23.637-21.811,46.376-33.562c6.548,12.234,25.262,26.731,39.325,38.965"/>
					
						<path id="path19777" sodipodi:nodetypes="cccccc" fill="#FFFFFF" stroke="#000000" stroke-width="3.7304" stroke-linecap="round" stroke-linejoin="round" d="
						M310.182,232.254c-9.915,7.269-26.724,14.681-33.036,23.042 M318.647,240.717c-6.409,4.381-20.547,9.983-24.55,15.458
						 M326.986,248.032c-4.144,3.766-14.957,5.9-16.749,8.597"/>
				</g>
				
					<path id="path19779" sodipodi:nodetypes="csssccccccc" fill="#FFFFFF" stroke="#000000" stroke-width="3.7304" stroke-linecap="round" stroke-linejoin="round" d="
					M129.899,279.43c10.569-6.009,15.043-7.393,27.716-10.463c15.138-3.666,34.458-7.862,54.934-10.302
					c36.818-4.387,77.368-3.079,104.036-0.917c53.275,4.319,129.031,29.077,148.824,28.587c9.863,0.514,22.144-0.68,27.448-3.302
					c25.499-19.307,47.547-19.798,70.268-23.956c-0.773,6.866-32.666,30.945-39.998,43.508
					c7.013,18.563,29.406,26.673,36.489,41.643c-30.653,0.097-52.504-15.023-77.636-23.292
					c-116.767-16.366-95.091,46.733-252.733,21.876"/>
				
					<path id="path19781" sodipodi:nodetypes="ccc" fill="#FFFFFF" stroke="#000000" stroke-width="3.7304" stroke-linecap="round" stroke-linejoin="round" d="
					M195.335,318.55c35.582,12.737,40.403,32.111,39.764,47.558c-7.881,3.487-36.042-19.168-60.105-39.616"/>
				
					<path id="path19783" sodipodi:nodetypes="cscc" fill="#FFFFFF" stroke="#000000" stroke-width="3.7304" stroke-linecap="round" stroke-linejoin="round" d="
					M199.386,288.469c11.815,41.688-26.182,48.623-65.139,24.182c-2.811-1.764-9.84-2.984-13.994-5.78
					c-22.514-4.54,11.731-5.605,17.532-5.487"/>
				
					<path id="path19785" fill="#FFFFFF" stroke="#000000" stroke-width="3.7304" stroke-linecap="round" stroke-linejoin="round" d="
					M186.636,284.231c4.372,18.804-0.527,31.284-20.962,33.173"/>
				
					<path id="path19787" sodipodi:nodetypes="cssssc" fill="#FFFFFF" stroke="#000000" stroke-width="3.7304" stroke-linecap="round" stroke-linejoin="round" d="
					M159.723,300.771c-10.413,0.933-24.396-0.613-36.208-2.141c-8.7-1.126-16.223-1.67-20.273-4.136
					c-3.96-2.409-5.47-5.276,1.894-8.267c2.828-1.149,7.933-2.643,15.589-4.339c8.552-1.894,10.909-3.507,10.909-3.507"/>
				
					<path id="path19789" sodipodi:nodetypes="csssc" fill="#FFFFFF" stroke="#000000" stroke-width="3.7304" stroke-linecap="round" stroke-linejoin="round" d="
					M168.855,286.704c0,3.477-2.991,8.416-8.425,8.416c-5.435,0-11.255-4.94-11.255-8.416s4.406-6.295,9.84-6.295
					S168.855,283.227,168.855,286.704z"/>
				
					<path id="path19791" fill="#FFFFFF" stroke="#000000" stroke-width="3.7304" stroke-linecap="round" stroke-linejoin="round" d="
					M164.45,286.939c0,1.734-1.664,3.212-3.925,3.484c-2.26,0.273-4.449-0.738-5.161-2.387c-0.712-1.649,0.263-3.445,2.299-4.237
					c2.036-0.792,4.531-0.346,5.885,1.053l-3.756,2.087H164.45z"/>
				
					<path id="path19793" sodipodi:nodetypes="cc" fill="#FFFFFF" stroke="#000000" stroke-width="3.7304" stroke-linecap="round" stroke-linejoin="round" d="
					M521.482,303.688c-4.215-0.686-10.486-1.563-20.059-1.149"/>
				
					<path id="path19795" fill="#FFFFFF" stroke="#000000" stroke-width="3.7304" stroke-linecap="round" stroke-linejoin="round" d="
					M535.713,286.263c-6.469,0.05-20.812,4.999-34.152,9.15"/>
				
					<path id="path19797" fill="#FFFFFF" stroke="#000000" stroke-width="3.7304" stroke-linecap="round" stroke-linejoin="round" d="
					M551.847,272.466c-13.476,0.775-32.772,6.9-52.93,15.221"/>
				
					<path id="path19799" fill="#FFFFFF" stroke="#000000" stroke-width="3.7304" stroke-linecap="round" stroke-linejoin="round" d="
					M546.675,329.927c-14.492-1.267-31.41-7.433-45.902-11.703"/>
				
					<path id="path19801" sodipodi:nodetypes="cc" fill="#FFFFFF" stroke="#000000" stroke-width="3.7304" stroke-linecap="round" stroke-linejoin="round" d="
					M530.633,314.968c-9.151,1-19.357-3.1-28.369-3.495"/>
				
					<path id="path19803" sodipodi:nodetypes="cc" fill="#FFFFFF" stroke="#000000" stroke-width="3.7304" stroke-linecap="round" stroke-linejoin="round" d="
					M197.127,330.104l37.76,35.579"/>
				
					<path id="path19805" sodipodi:nodetypes="cc" fill="#FFFFFF" stroke="#000000" stroke-width="3.7304" stroke-linecap="round" stroke-linejoin="round" d="
					M322.037,347.747c6.624,1.976,23.81,6.887,31.638,7.77"/>
				
					<path id="path19807" sodipodi:nodetypes="cc" fill="#FFFFFF" stroke="#000000" stroke-width="3.7304" stroke-linecap="round" stroke-linejoin="round" d="
					M338.633,344.72l17.232,5.86"/>
				
					<path id="path19809" fill="#FFFFFF" stroke="#000000" stroke-width="3.7304" stroke-linecap="round" stroke-linejoin="round" d="
					M217.359,269.109c9.101,6.766,1.698,15.436,0,15.012"/>
				
					<path id="path19811" fill="#FFFFFF" stroke="#000000" stroke-width="3.7304" stroke-linecap="round" stroke-linejoin="round" d="
					M229.592,290.806c9.328,6.934,1.741,15.82,0,15.386"/>
				
					<path id="path19813" fill="#FFFFFF" stroke="#000000" stroke-width="3.7304" stroke-linecap="round" stroke-linejoin="round" d="
					M249.17,265.036c9.328,6.934,1.741,15.82,0,15.386"/>
				
					<path id="path19815" fill="#FFFFFF" stroke="#000000" stroke-width="3.7304" stroke-linecap="round" stroke-linejoin="round" d="
					M261.135,287.304c11.821,8.788,2.205,20.049,0,19.499"/>
				
					<path id="path19817" fill="#FFFFFF" stroke="#000000" stroke-width="3.7304" stroke-linecap="round" stroke-linejoin="round" d="
					M212.463,303.413c8.285,6.16,1.546,14.053,0,13.667"/>
				
					<path id="path19819" fill="#FFFFFF" stroke="#000000" stroke-width="3.7304" stroke-linecap="round" stroke-linejoin="round" d="
					M245.004,313.545c9.327,6.934,1.74,15.82,0,15.386"/>
				
					<path id="path19821" fill="#FFFFFF" stroke="#000000" stroke-width="3.7304" stroke-linecap="round" stroke-linejoin="round" d="
					M293.895,291.744c9.328,6.934,1.741,15.82,0,15.386"/>
				
					<path id="path19823" fill="#FFFFFF" stroke="#000000" stroke-width="3.7304" stroke-linecap="round" stroke-linejoin="round" d="
					M277.8,322.129c9.328,6.934,1.74,15.82,0,15.386"/>
				
					<path id="path19825" fill="#FFFFFF" stroke="#000000" stroke-width="3.7304" stroke-linecap="round" stroke-linejoin="round" d="
					M281.036,264.427c9.328,6.934,1.741,15.82,0,15.386"/>
				
					<path id="path19827" fill="#FFFFFF" stroke="#000000" stroke-width="3.7304" stroke-linecap="round" stroke-linejoin="round" d="
					M312.488,274.897c11.027,8.198,2.058,18.703,0,18.19"/>
				
					<path id="path19829" fill="#FFFFFF" stroke="#000000" stroke-width="3.7304" stroke-linecap="round" stroke-linejoin="round" d="
					M310.172,314.006c11.065,8.226,2.064,18.767,0,18.252"/>
				
					<path id="path19831" fill="#FFFFFF" stroke="#000000" stroke-width="3.7304" stroke-linecap="round" stroke-linejoin="round" d="
					M325.708,294.713c10.717,7.968,1.999,18.177,0,17.678"/>
				
					<path id="path19833" fill="#FFFFFF" stroke="#000000" stroke-width="3.7304" stroke-linecap="round" stroke-linejoin="round" d="
					M344.659,276.637c9.781,7.271,1.824,16.589,0,16.134"/>
				
					<path id="path19835" fill="#FFFFFF" stroke="#000000" stroke-width="3.7304" stroke-linecap="round" stroke-linejoin="round" d="
					M343.393,318.416c9.328,6.934,1.741,15.82,0,15.387"/>
				
					<path id="path19837" fill="#FFFFFF" stroke="#000000" stroke-width="3.7304" stroke-linecap="round" stroke-linejoin="round" d="
					M358.199,298.758c9.328,6.934,1.741,15.821,0,15.387"/>
				
					<path id="path19839" fill="#FFFFFF" stroke="#000000" stroke-width="3.7304" stroke-linecap="round" stroke-linejoin="round" d="
					M376.636,281.477c9.327,6.934,1.74,15.82,0,15.386"/>
				
					<path id="path19841" fill="#FFFFFF" stroke="#000000" stroke-width="3.7304" stroke-linecap="round" stroke-linejoin="round" d="
					M376.19,310.095c9.327,6.934,1.739,15.82,0,15.386"/>
				
					<path id="path19843" fill="#FFFFFF" stroke="#000000" stroke-width="3.7304" stroke-linecap="round" stroke-linejoin="round" d="
					M394.521,300.331c8.633,6.418,1.61,14.642,0,14.24"/>
				
					<path id="path19845" fill="#FFFFFF" stroke="#000000" stroke-width="3.7304" stroke-linecap="round" stroke-linejoin="round" d="
					M422.843,291.784c7.938,5.902,1.48,13.463,0,13.094"/>
				
					<path id="path19847" fill="#FFFFFF" stroke="#000000" stroke-width="3.7304" stroke-linecap="round" stroke-linejoin="round" d="
					M451.249,295.464c6.896,5.126,1.287,11.696,0,11.374"/>
			</g>
		</g>
	</g>
</g>
<g id="layer4" inkscape:label="Meubles" sodipodi:insensitive="true" inkscape:groupmode="layer">
</g>
<g id="layer2" inkscape:label="Reflet final" sodipodi:insensitive="true" inkscape:groupmode="layer">
	
		<radialGradient id="path2875_1_" cx="269.3208" cy="287.0785" r="300.0002" gradientTransform="matrix(1.3532 0 0 -1.3489 -142.9674 606.8044)" gradientUnits="userSpaceOnUse">
		<stop  offset="0" style="stop-color:#FFFFFF;stop-opacity:0.3137"/>
		<stop  offset="0.19" style="stop-color:#FFFFFF;stop-opacity:0.251"/>
		<stop  offset="0.6" style="stop-color:#6B6B6B;stop-opacity:0.1255"/>
		<stop  offset="1" style="stop-color:#000000;stop-opacity:0.1255"/>
	</radialGradient>
	
		<path id="path2875" inkscape:export-ydpi="144" inkscape:export-xdpi="144" sodipodi:nodetypes="cccccc" fill="url(#path2875_1_)" d="
		M299.449,658.5c0,0,298.5-112.32,298.5-397.772c0-285.451,0-258.551,0-258.551h-597v258.551
		C0.949,546.18,299.449,658.5,299.449,658.5z"/>
</g>
<g id="layer1" inkscape:label="Contour final" sodipodi:insensitive="true" inkscape:groupmode="layer">
	
		<path id="path1411" inkscape:export-ydpi="144" inkscape:export-xdpi="144" sodipodi:nodetypes="cccccc" fill="none" stroke="#000000" stroke-width="3" d="
		M300,658.5c0,0-298.5-112.32-298.5-397.771c0-285.452,0-258.552,0-258.552h597v258.552C598.5,546.18,300,658.5,300,658.5z"/>
</g>
</svg>
